<svg width="321" height="288" viewBox="0 0 321 288" fill="none" xmlns="http://www.w3.org/2000/svg">
<path fill-rule="evenodd" clip-rule="evenodd" d="M42.1766 42.1766C69.1818 15.1714 105.809 0 144 0V69.8227C124.327 69.8227 105.46 77.6377 91.5487 91.5487C77.6377 105.46 69.8227 124.327 69.8227 144C69.8227 163.673 77.6377 182.54 91.5487 196.451C105.212 210.114 123.656 217.897 142.949 218.17V218.169C143.14 218.171 143.324 218.174 143.503 218.175C143.669 218.177 143.834 218.177 144 218.177V218.181C145.455 218.194 146.612 218.196 148.204 218.181V218.177C148.395 218.177 148.586 218.176 148.777 218.175C148.932 218.173 149.091 218.171 149.255 218.169V218.17C168.548 217.897 186.992 210.114 200.655 196.451C214.566 182.54 222.381 163.673 222.381 144C222.381 137.558 222.381 131.387 222.306 125.08V18.9197L223.152 19.5664C231.853 26.2175 241.259 33.4085 250.028 42.1766C277.033 69.1818 292.204 105.809 292.204 144C292.204 163.058 288.426 181.727 281.285 199.005L310.816 218.228C319.61 223.952 322.099 235.722 316.375 244.516L313.416 249.062C299.557 270.353 271.061 276.378 249.769 262.519L239.177 255.624C213.869 276.252 182.172 287.756 149.255 287.996V288H142.949V287.996C105.137 287.72 68.934 272.581 42.1766 245.823C15.1714 218.818 -3.33877e-06 182.191 0 144C3.33878e-06 105.809 15.1714 69.1818 42.1766 42.1766Z" fill="url(#paint0_linear_1_23)"/>
<path fill-rule="evenodd" clip-rule="evenodd" d="M148.204 0H218.628V144.525C218.628 182.89 184.993 213.372 148.204 213.372V0ZM187.095 288C207.185 282.332 222.979 275.639 240.175 262.248C261.64 279.886 298.153 279.874 317.531 252.914L320.787 247.533V247.838C320.831 247.762 320.874 247.686 320.917 247.61L320.787 247.839V288L298.088 288H187.095Z" fill="#62AFFD"/>
<defs>
<linearGradient id="paint0_linear_1_23" x1="159.727" y1="0" x2="159.727" y2="288" gradientUnits="userSpaceOnUse">
<stop stop-color="#3C5AEB"/>
<stop offset="1" stop-color="#1C3DD5"/>
</linearGradient>
</defs>
</svg>
